<?xml version="1.0" encoding="UTF-8"?>
<svg id="Lag_1" data-name="Lag 1" xmlns="http://www.w3.org/2000/svg" viewBox="0 0 396.18 398.31">
  <defs>
    <style>
      .cls-1 {
        fill: #2c2c2c;
      }

      .cls-2 {
        fill: #e8534e;
      }
    </style>
  </defs>
  <path class="cls-2" d="M396.18,140.59c.15,30.73-56.34,65.76-86.53,86.88-28.51,18.98-56.45,37-87.82,57.38-45.66,29.42-93.71,60.79-140.29,85.52-18.33,9.16-60.74,32.4-76.49,20.76-22.3-19.11,35.35-106.98,54.42-139.64,35.55-57.68,72.54-114.98,110.71-170.9,16.9-24.1,34.9-51.14,57.35-69.34,56.98-45.19,78.9,57.52,89.59,100.59,8.94,39.49,16.75,81.09,23.36,120.01,5.53,38.24,25.93,142.42-13.09,163.04-40.58,20.37-122.5-55.8-155.85-83.55-35.95-31.5-72.02-62.55-107.1-94.81-22.92-22.17-50.05-46.6-58.16-72.86-10.41-40.12,46.06-45.74,75.85-48.14,42.6-2.71,88.4-.9,132.7.35,33.9,1.19,70.43,2.93,102.25,6.65,27.67,3.79,76.88,9.81,79.07,37.95v.1h.03Z"/>
  <path class="cls-1" d="M308.83,227h-108.91v-34.71h108.91v34.71ZM324.2,149.09h-138.06v155.55h-34.45v-172.64c0-2.38.44-4.64,1.32-6.76.88-2.12,2.08-3.97,3.58-5.56,1.59-1.59,3.44-2.83,5.56-3.71,2.12-.88,4.42-1.32,6.89-1.32h155.15v34.45Z"/>
</svg>