<?xml version="1.0" encoding="UTF-8"?>
<svg id="Lag_1" data-name="Lag 1" xmlns="http://www.w3.org/2000/svg" viewBox="0 0 1900.71 398.31">
  <defs>
    <style>
      .cls-1 {
        fill: #2c2c2c;
      }

      .cls-2 {
        fill: #e8534e;
      }
    </style>
  </defs>
  <path class="cls-2" d="M396.18,140.59c.15,30.73-56.34,65.76-86.53,86.88-28.51,18.98-56.45,37-87.82,57.38-45.66,29.42-93.71,60.79-140.29,85.52-18.33,9.16-60.74,32.4-76.49,20.76-22.3-19.11,35.35-106.98,54.42-139.64,35.55-57.68,72.54-114.98,110.71-170.9,16.9-24.1,34.9-51.14,57.35-69.34,56.98-45.19,78.9,57.52,89.59,100.59,8.94,39.49,16.75,81.09,23.36,120.01,5.53,38.24,25.93,142.42-13.09,163.04-40.58,20.37-122.5-55.8-155.85-83.55-35.95-31.5-72.02-62.55-107.1-94.81-22.92-22.17-50.05-46.6-58.16-72.86-10.41-40.12,46.06-45.74,75.85-48.14,42.6-2.71,88.4-.9,132.7.35,33.9,1.19,70.43,2.93,102.25,6.65,27.67,3.79,76.88,9.81,79.07,37.95v.1h.03Z"/>
  <path class="cls-1" d="M1301.3,164.92c0,8.07,1,15.28,2.99,21.62,1.99,6.35,4.71,11.97,8.16,16.86,3.35,4.8,7.25,8.93,11.69,12.37,4.44,3.44,9.11,6.3,14.01,8.57,4.8,2.18,9.7,3.76,14.69,4.76,4.9,1,9.52,1.5,13.87,1.5l-73.84,63.78h54.66l73.7-63.78h25.43v-35.36h-79.96c-4.44-.36-8.48-1.27-12.1-2.72-3.72-1.54-6.89-3.58-9.52-6.12-2.72-2.54-4.8-5.58-6.26-9.11-1.45-3.63-2.18-7.75-2.18-12.37v-22.3c0-1.99.27-3.49.82-4.49.45-1.09,1.09-1.86,1.9-2.31.73-.54,1.54-.86,2.45-.95.82-.09,1.59-.14,2.31-.14h116.67v159.64h35.36V117.19c0-2.45-.45-4.76-1.36-6.94-.91-2.18-2.13-4.08-3.67-5.71-1.63-1.63-3.54-2.9-5.71-3.81-2.18-.91-4.53-1.36-7.07-1.36h-134.22c-7.89,0-14.55,1.45-19.99,4.35-5.44,2.81-9.84,6.39-13.19,10.74-3.44,4.26-5.89,8.88-7.34,13.87-1.54,4.99-2.31,9.65-2.31,14.01v22.57Z"/>
  <path class="cls-1" d="M1722.16,278.84c0,2.54-.45,4.9-1.36,7.07-.91,2.18-2.18,4.08-3.81,5.71-1.63,1.54-3.54,2.77-5.71,3.67-2.18.91-4.49,1.36-6.94,1.36h-79.69c-7.52,0-15.14-.82-22.84-2.45-7.71-1.63-15.19-4.12-22.44-7.48-7.16-3.44-13.92-7.8-20.26-13.05-6.35-5.26-11.92-11.47-16.73-18.63-4.71-7.25-8.43-15.5-11.15-24.75-2.72-9.34-4.08-19.72-4.08-31.14v-97.5h35.36v97.5c0,9.97,1.36,18.4,4.08,25.29,2.81,6.89,6.35,12.65,10.61,17.27,4.26,4.62,8.93,8.25,14.01,10.88s9.88,4.58,14.41,5.85c4.62,1.27,8.66,2.09,12.1,2.45,3.54.27,5.85.41,6.94.41h62.14V101.65h35.36v177.19ZM1900.71,247.02c0,6.07-.77,11.56-2.31,16.45-1.54,4.8-3.58,9.07-6.12,12.78-2.54,3.63-5.48,6.75-8.84,9.38-3.35,2.54-6.89,4.62-10.61,6.25-3.63,1.63-7.34,2.86-11.15,3.67-3.72.72-7.25,1.09-10.61,1.09h-95.73v-35.36h95.46c4.8,0,8.43-1.22,10.88-3.67,2.45-2.45,3.67-5.98,3.67-10.61-.45-9.43-5.21-14.14-14.28-14.14h-54.8c-7.8,0-14.41-1.36-19.85-4.08-5.44-2.72-9.88-6.12-13.33-10.2-3.35-4.08-5.8-8.48-7.34-13.19-1.45-4.71-2.18-9.11-2.18-13.19,0-7.89,1.41-14.5,4.22-19.85,2.81-5.44,6.35-9.84,10.61-13.19,4.26-3.35,8.88-5.76,13.87-7.21,4.99-1.54,9.66-2.31,14.01-2.31h86.89v35.36h-86.62c-1.81,0-3.26.23-4.35.68-1,.36-1.77.91-2.31,1.63-.45.63-.73,1.36-.82,2.18-.09.72-.14,1.45-.14,2.18.09,1.45.36,2.58.82,3.4.45.82,1,1.41,1.63,1.77.73.36,1.5.59,2.31.68h57.38c9.07,0,16.77,1.63,23.12,4.9,6.35,3.26,11.47,7.39,15.37,12.37,3.9,4.9,6.71,10.24,8.43,16.05,1.81,5.8,2.72,11.2,2.72,16.18Z"/>
  <path class="cls-1" d="M307.51,220.68h-106.89v-34.07h106.89v34.07ZM322.6,144.21h-135.5v152.67h-33.81V127.44c0-2.34.43-4.55,1.3-6.63.87-2.08,2.04-3.9,3.51-5.46,1.56-1.56,3.38-2.77,5.46-3.64s4.33-1.3,6.76-1.3h152.28v33.81ZM481.63,250.32c0,4.68-.82,9.75-2.47,15.21-1.65,5.38-4.33,10.4-8.06,15.08-3.64,4.59-8.45,8.45-14.43,11.57-5.89,3.12-13.09,4.68-21.59,4.68h-60.99c-4.68,0-9.75-.82-15.21-2.47-5.38-1.65-10.4-4.29-15.08-7.93-4.59-3.73-8.45-8.54-11.57-14.43-3.12-5.98-4.68-13.22-4.68-21.72,0-4.68.82-9.75,2.47-15.21,1.65-5.46,4.29-10.49,7.93-15.09,3.73-4.68,8.54-8.58,14.43-11.7,5.98-3.12,13.22-4.68,21.72-4.68h60.99v32.25h-60.99c-4.59,0-8.15,1.43-10.66,4.29-2.51,2.77-3.77,6.24-3.77,10.4,0,4.42,1.43,7.89,4.29,10.4,2.95,2.43,6.42,3.64,10.4,3.64h60.73c4.59,0,8.15-1.39,10.66-4.16,2.51-2.77,3.77-6.24,3.77-10.4v-47.2c0-4.42-1.39-7.93-4.16-10.53-2.69-2.6-6.11-3.9-10.27-3.9h-74.25v-32.12h74.25c4.68,0,9.71.82,15.09,2.47,5.46,1.65,10.49,4.34,15.08,8.06,4.68,3.64,8.58,8.45,11.7,14.43,3.12,5.89,4.68,13.09,4.68,21.59v47.46ZM646.39,249.41c0,5.81-.74,11.05-2.21,15.73-1.47,4.59-3.42,8.67-5.85,12.22-2.43,3.47-5.25,6.46-8.45,8.97-3.21,2.43-6.59,4.42-10.14,5.98-3.47,1.56-7.02,2.73-10.66,3.51-3.55.69-6.93,1.04-10.14,1.04h-91.55v-33.81h91.29c4.59,0,8.06-1.17,10.4-3.51,2.34-2.34,3.51-5.72,3.51-10.14-.43-9.02-4.98-13.52-13.65-13.52h-52.41c-7.46,0-13.78-1.3-18.99-3.9-5.2-2.6-9.45-5.85-12.74-9.75-3.21-3.9-5.55-8.11-7.02-12.61-1.39-4.51-2.08-8.71-2.08-12.61,0-7.54,1.34-13.87,4.03-18.99,2.69-5.2,6.07-9.41,10.14-12.61,4.07-3.21,8.5-5.5,13.26-6.89,4.77-1.47,9.23-2.21,13.39-2.21h83.1v33.81h-82.83c-1.73,0-3.12.22-4.16.65-.95.35-1.69.87-2.21,1.56-.43.61-.69,1.3-.78,2.08-.09.69-.13,1.39-.13,2.08.09,1.39.35,2.47.78,3.25.43.78.95,1.34,1.56,1.69.69.35,1.43.56,2.21.65h54.88c8.67,0,16.04,1.56,22.11,4.68,6.07,3.12,10.97,7.07,14.69,11.83,3.73,4.68,6.41,9.8,8.06,15.34,1.73,5.55,2.6,10.71,2.6,15.47ZM826.49,296.88h-33.81v-93.24c0-4.42-1.13-7.76-3.38-10.01-2.25-2.34-5.64-3.51-10.14-3.51h-60.99v-33.81h60.99c3.21,0,6.59.39,10.14,1.17,3.55.69,7.07,1.82,10.53,3.38,3.55,1.56,6.94,3.6,10.14,6.11,3.21,2.43,6.03,5.42,8.46,8.97,2.42,3.47,4.37,7.5,5.85,12.09,1.48,4.59,2.21,9.8,2.21,15.61v93.24ZM704.52,296.88h-33.81V96.88h33.81v200ZM891.78,127.44h-33.81v-30.56h33.81v30.56ZM891.78,296.88h-33.81v-140.57h33.81v140.57ZM1077.21,249.41c0,5.81-.74,11.05-2.21,15.73-1.48,4.59-3.43,8.67-5.85,12.22-2.43,3.47-5.25,6.46-8.46,8.97-3.2,2.43-6.58,4.42-10.14,5.98-3.47,1.56-7.02,2.73-10.67,3.51-3.56.69-6.93,1.04-10.14,1.04h-60.99c-4.68,0-9.8-.82-15.35-2.47s-10.71-4.33-15.47-8.06c-4.68-3.81-8.63-8.71-11.84-14.69-3.12-6.07-4.68-13.48-4.68-22.24v-45.77c0-8.67,1.56-15.99,4.68-21.98,3.21-6.07,7.16-10.97,11.84-14.69,4.77-3.81,9.93-6.55,15.47-8.19,5.55-1.65,10.67-2.47,15.35-2.47h60.99c8.67,0,16.04,1.56,22.1,4.68,6.07,3.12,10.97,7.07,14.69,11.83,3.73,4.68,6.42,9.8,8.06,15.34,1.74,5.55,2.6,10.71,2.6,15.47v45.77ZM1043.4,203.9c0-4.68-1.17-8.15-3.52-10.4-2.34-2.25-5.72-3.38-10.14-3.38h-60.73c-4.51,0-7.94,1.17-10.27,3.51-2.34,2.25-3.52,5.59-3.52,10.01v45.77c0,4.42,1.17,7.8,3.52,10.14,2.34,2.34,5.77,3.51,10.27,3.51h60.73c4.59,0,8.02-1.17,10.27-3.51,2.25-2.34,3.38-5.72,3.38-10.14v-45.51ZM1261.87,296.88h-33.81v-78.02c0-4.42-.78-8.37-2.34-11.83-1.47-3.55-3.51-6.59-6.11-9.1-2.6-2.51-5.67-4.42-9.23-5.72-3.47-1.39-7.24-2.08-11.31-2.08h-59.17v106.76h-33.81v-123.8c0-2.34.43-4.51,1.3-6.5.87-2.08,2.08-3.86,3.64-5.33,1.56-1.56,3.38-2.77,5.46-3.64,2.08-.87,4.29-1.3,6.63-1.3h76.21c4.25,0,8.71.48,13.39,1.43,4.77.95,9.45,2.51,14.05,4.68,4.68,2.08,9.1,4.77,13.26,8.06,4.25,3.21,7.98,7.15,11.19,11.83,3.29,4.59,5.89,9.93,7.8,15.99,1.91,6.07,2.86,12.92,2.86,20.55v78.02Z"/>
</svg>