<?xml version="1.0" encoding="UTF-8"?>
<svg id="Lag_1" data-name="Lag 1" xmlns="http://www.w3.org/2000/svg" viewBox="0 0 417.34 420">
  <defs>
    <style>
      .cls-1 {
        fill: #2c2c2c;
      }

      .cls-2 {
        fill: #e8534e;
      }
    </style>
  </defs>
  <path class="cls-2" d="M402.05,153.71c.15,30.73-56.34,65.76-86.53,86.88-28.51,18.98-56.45,37-87.82,57.38-45.66,29.42-93.71,60.79-140.29,85.52-18.33,9.16-60.74,32.4-76.49,20.76-22.3-19.11,35.35-106.98,54.42-139.64,35.55-57.68,72.54-114.98,110.71-170.9,16.9-24.1,34.9-51.14,57.35-69.34,56.98-45.19,78.9,57.52,89.59,100.59,8.94,39.49,16.75,81.09,23.36,120.01,5.53,38.24,25.93,142.42-13.09,163.04-40.58,20.37-122.5-55.8-155.85-83.55-35.95-31.5-72.02-62.55-107.1-94.81-22.92-22.17-50.05-46.6-58.16-72.86-10.41-40.12,46.06-45.74,75.85-48.14,42.6-2.71,88.4-.9,132.7.35,33.9,1.19,70.43,2.93,102.25,6.65,27.67,3.79,76.88,9.81,79.07,37.95v.1Z"/>
  <path class="cls-1" d="M230.99,188.67h-74.05v-32.74h74.05v32.74ZM230.99,129.6h-73.8c-4.45,0-7.81,1.13-10.07,3.4-2.27,2.18-3.4,5.42-3.4,9.7v149.36h-32.74v-149.36c0-5.63.71-10.66,2.14-15.11s3.32-8.35,5.67-11.71c2.43-3.44,5.21-6.34,8.31-8.69,3.11-2.43,6.34-4.41,9.7-5.92,3.44-1.51,6.88-2.6,10.33-3.27,3.44-.76,6.72-1.13,9.82-1.13h74.05v32.74h0Z"/>
  <path class="cls-1" d="M306.36,350.95c0,5.62-.71,10.65-2.14,15.09-1.43,4.53-3.31,8.47-5.66,11.82-2.35,3.44-5.07,6.33-8.18,8.68-3.1,2.43-6.38,4.4-9.81,5.91-3.36,1.51-6.79,2.6-10.32,3.27-3.44.75-6.71,1.13-9.81,1.13h-59.01v-32.71h59.01c4.45,0,7.76-1.13,9.94-3.4,2.18-2.26,3.27-5.53,3.27-9.81v-103.27c0-4.28-1.09-7.51-3.27-9.69-2.18-2.26-5.49-3.4-9.94-3.4h-59.01c-4.03,0-7.21,1.26-9.56,3.77-2.35,2.43-3.52,5.53-3.52,9.31v44.28c0,4.28,1.13,7.55,3.4,9.81,2.26,2.26,5.58,3.4,9.94,3.4h58.76v32.7h-59.01c-3.1,0-6.38-.34-9.81-1.01-3.44-.75-6.88-1.89-10.32-3.4-3.36-1.51-6.59-3.44-9.69-5.79-3.1-2.43-5.83-5.33-8.18-8.68-2.35-3.44-4.24-7.38-5.66-11.82-1.43-4.53-2.14-9.6-2.14-15.22v-44.28c0-3.1.34-6.37,1.01-9.81.75-3.44,1.89-6.83,3.4-10.19,1.51-3.44,3.44-6.71,5.79-9.81,2.43-3.1,5.33-5.83,8.68-8.18,3.44-2.35,7.38-4.23,11.83-5.66,4.45-1.43,9.48-2.14,15.1-2.14h59.01c3.1,0,6.37.38,9.81,1.13,3.52.67,6.96,1.76,10.32,3.27,3.44,1.51,6.71,3.48,9.81,5.91,3.1,2.35,5.83,5.24,8.18,8.68,2.35,3.35,4.24,7.25,5.66,11.7,1.43,4.44,2.14,9.48,2.14,15.09v103.27l-.02.05Z"/>
</svg>