<?xml version="1.0" encoding="UTF-8"?>
<svg id="Lag_1" data-name="Lag 1" xmlns="http://www.w3.org/2000/svg" viewBox="0 0 100 100.91">
  <defs>
    <style>
      .cls-1 {
        fill: #f9f4f4;
      }
    </style>
  </defs>
  <path class="cls-1" d="M100,35.62c.04,7.79-14.22,16.66-21.84,22.01-7.2,4.81-14.25,9.37-22.17,14.54-11.53,7.45-23.65,15.4-35.41,21.67-4.63,2.32-15.33,8.21-19.31,5.26-5.63-4.84,8.92-27.1,13.74-35.38,8.97-14.61,18.31-29.13,27.94-43.3,4.27-6.11,8.81-12.96,14.48-17.57,14.38-11.45,19.92,14.57,22.61,25.48,2.26,10,4.23,20.54,5.9,30.4,1.4,9.69,6.54,36.08-3.3,41.31-10.24,5.16-30.92-14.14-39.34-21.17-9.07-7.98-18.18-15.85-27.03-24.02-5.79-5.62-12.63-11.81-14.68-18.46-2.63-10.16,11.63-11.59,19.15-12.2,10.75-.69,22.31-.23,33.49.09,8.56.3,17.78.74,25.81,1.68,6.98.96,19.41,2.49,19.96,9.61v.03h0Z"/>
</svg>